<?xml version="1.0" encoding="UTF-8"?><svg id="Capa_1" xmlns="http://www.w3.org/2000/svg" viewBox="0 0 226.77 226.77"><circle cx="113.39" cy="113.8" r="108.77" style="fill:#fff;"/><g><circle cx="135.04" cy="113.8" r="18.2" style="fill:#e97d7a;"/><path d="m135.04,65.65c-23.66,0-43.4,16.48-47.99,38.39h-13.7v-43.04c0-5.39-4.37-9.76-9.76-9.76s-9.76,4.37-9.76,9.76v105.59c0,5.39,4.37,9.76,9.76,9.76s9.76-4.37,9.76-9.76v-43.04h13.7c4.59,21.91,24.33,38.39,47.99,38.39,27.06,0,49-21.56,49-48.15s-21.94-48.15-49-48.15Zm0,76.89c-16.15,0-29.25-12.87-29.25-28.74s13.1-28.74,29.25-28.74,29.25,12.87,29.25,28.74-13.1,28.74-29.25,28.74Z" style="fill:#233167;"/></g></svg>