<?xml version="1.0" encoding="UTF-8"?><svg id="Capa_1" xmlns="http://www.w3.org/2000/svg" viewBox="0 0 1028.51 350.61"><g><g><path d="m681.92,103.48h0c6.85,0,12.41,5.56,12.41,12.41v113.19c0,6.65-5.39,12.04-12.04,12.04h-.73c-6.65,0-12.04-5.39-12.04-12.04v-113.19c0-6.85,5.56-12.41,12.41-12.41Z" style="fill:#233167;"/><path d="m897.97,100.32c-22.54,0-39.83,7.04-51.23,19.51-2.19,2.4-5.87,2.43-8.1.06-11.77-12.53-29.47-19.57-52.6-19.57-44.53,0-68.87,26.52-68.87,68.62v60.29c0,6.65,5.39,12.04,12.04,12.04h0c6.65,0,12.04-5.39,12.04-12.04v-10.05c0-3.83,3.1-6.93,6.93-6.93h75.69c3.83,0,6.93,3.1,6.93,6.93v9.9c0,6.65,5.39,12.04,12.04,12.04h.73c6.65,0,12.04-5.39,12.04-12.04v-60.14s0-2.68,0-2.68c0-26.77,14.6-43.07,42.34-43.07s42.58,16.3,42.58,43.07v62.82c0,6.65,5.39,12.04,12.04,12.04h.73c6.65,0,12.04-5.39,12.04-12.04v-62.82c0-40.39-24.09-65.94-67.4-65.94Zm-73.28,89.06h-77.31c-3.38,0-6.12-2.74-6.12-6.12v-14.32c0-28.72,15.09-45.75,44.78-45.75s44.77,17.03,44.77,45.75v14.32c0,3.38-2.74,6.12-6.12,6.12Z" style="fill:#233167;"/></g><g><circle cx="213.63" cy="149.46" r="26.72" style="fill:#e97d7a;"/><path d="m213.63,78.79c-34.73,0-63.7,24.19-70.44,56.35h-20.11v-63.17c0-7.91-6.41-14.32-14.32-14.32s-14.32,6.41-14.32,14.32v154.98c0,7.91,6.41,14.32,14.32,14.32s14.32-6.41,14.32-14.32v-63.17h20.11c6.74,32.16,35.71,56.35,70.44,56.35,39.72,0,71.92-31.64,71.92-70.67s-32.2-70.67-71.92-70.67Zm0,112.86c-23.71,0-42.93-18.89-42.93-42.19s19.22-42.19,42.93-42.19,42.93,18.89,42.93,42.19-19.22,42.19-42.93,42.19Z" style="fill:#233167;"/></g><path d="m614.55,146.38v-.56c16.01-7.3,25.27-21.9,25.27-40.99,0-27.51-18.25-47.17-52.22-47.17h-41.56c-6.9,0-13.06,5.06-13.69,11.94-.72,7.87,5.45,14.46,13.14,14.46h38.88c19.65,0,27.51,10.67,27.51,25.27s-9.54,25.27-26.95,25.27h-27.92c-7.29,0-13.19,5.91-13.19,13.2h0c0,7.29,5.91,13.2,13.19,13.2h34.1c17.69,0,28.08,11.51,28.08,27.52,0,14.6-8.43,26.39-28.64,26.39h-56.29c-3.43,0-6.21-2.74-6.29-6.15v-83.71c0-45.49-27.52-67.4-62.9-67.4-21.42,0-38.64,8.4-49.32,24.21-1.81,2.68-5.7,2.68-7.51,0-10.67-15.81-27.9-24.21-49.31-24.21-35.38,0-62.9,21.9-62.9,67.4v101.76c0,7.91,6.41,14.32,14.32,14.32h0c7.91,0,14.32-6.41,14.32-14.32v-101.76c0-28.08,15.72-41,36.51-41s36.51,13.48,36.51,41v79.19c0,7.91,6.41,14.32,14.32,14.32s14.32-6.41,14.32-14.32v-79.19c0-27.52,15.45-41,36.51-41s36.51,12.92,36.51,41v87.61s0,0,0,0h0c0,15.82,12.82,28.64,28.64,28.64h66.94c34.82,0,53.35-20.78,53.35-49.13,0-22.46-12.64-39.59-33.7-45.77Z" style="fill:#233167;"/></g><g><path d="m825.07,272.24h2.82v8.86h.07c.46-.95,1.2-1.64,2.19-2.08s2.09-.65,3.29-.65c1.33,0,2.48.24,3.47.73.98.49,1.8,1.15,2.46,1.98.65.83,1.15,1.79,1.48,2.87.33,1.08.5,2.24.5,3.45s-.16,2.37-.48,3.45c-.32,1.08-.81,2.03-1.46,2.84-.65.81-1.47,1.45-2.46,1.93-.99.48-2.13.71-3.44.71-.44,0-.92-.04-1.43-.13-.51-.09-1.02-.24-1.53-.45-.51-.21-.99-.49-1.44-.83-.45-.34-.84-.77-1.15-1.28h-.07v2.29h-2.82v-23.71Zm12.97,12.63c-.21-.76-.53-1.44-.96-2.04s-.99-1.07-1.66-1.43c-.68-.35-1.47-.53-2.37-.53-.95,0-1.76.19-2.42.56-.66.38-1.21.87-1.63,1.48-.42.61-.73,1.3-.91,2.08-.19.78-.28,1.56-.28,2.36,0,.84.1,1.65.3,2.44.2.79.51,1.48.95,2.08s.99,1.08,1.68,1.44c.69.37,1.52.55,2.49.55s1.76-.19,2.42-.56c.66-.38,1.2-.87,1.59-1.49.4-.62.69-1.33.86-2.12.18-.8.27-1.62.27-2.46,0-.8-.11-1.58-.32-2.34Z" style="fill:#233167;"/><path d="m851.43,298.23c-.33.84-.66,1.55-.98,2.12-.32.58-.67,1.05-1.05,1.41s-.81.63-1.3.8c-.49.17-1.04.25-1.67.25-.33,0-.67-.02-1-.07-.33-.04-.66-.12-.97-.23v-2.59c.27.09.54.18.81.27.28.09.56.13.85.13.58,0,1.04-.13,1.39-.4.35-.27.66-.65.93-1.16l1.16-2.92-6.81-17.07h3.19l5.01,14.04h.07l4.81-14.04h2.99l-7.44,19.46Z" style="fill:#233167;"/><path d="m876.33,274.83h-7.9v-2.59h18.96v2.59h-7.9v21.12h-3.15v-21.12Z" style="fill:#233167;"/><path d="m889.71,272.24h2.82v14.04l7.84-7.5h3.79l-6.81,6.24,7.3,10.92h-3.59l-5.88-8.96-2.66,2.46v6.51h-2.82v-23.71Z" style="fill:#233167;"/><path d="m906.78,278.78h2.66v2.72h.07c.6-1.06,1.37-1.85,2.31-2.36.94-.51,2.03-.76,3.27-.76,1.13,0,2.07.16,2.82.46.75.31,1.36.74,1.83,1.29.46.55.79,1.21.98,1.98.19.76.28,1.61.28,2.54v11.29h-2.82v-11.62c0-1.06-.31-1.9-.93-2.52-.62-.62-1.47-.93-2.56-.93-.86,0-1.61.13-2.24.4s-1.16.64-1.58,1.13c-.42.49-.74,1.06-.95,1.71-.21.65-.32,1.37-.32,2.14v9.7h-2.82v-17.17Z" style="fill:#233167;"/><path d="m928.23,275.69h-2.82v-3.45h2.82v3.45Zm-2.82,3.09h2.82v17.17h-2.82v-17.17Z" style="fill:#233167;"/><path d="m932.78,272.24h2.82v14.04l7.84-7.5h3.79l-6.81,6.24,7.3,10.92h-3.59l-5.88-8.96-2.66,2.46v6.51h-2.82v-23.71Z" style="fill:#233167;"/><path d="m965.05,295.88c-.51.31-1.18.46-2.03.46-.73,0-1.31-.21-1.74-.63s-.65-1.1-.65-2.03c-.78.93-1.68,1.61-2.71,2.03s-2.14.63-3.34.63c-.78,0-1.51-.09-2.21-.27s-1.3-.46-1.81-.85c-.51-.39-.91-.89-1.21-1.49-.3-.61-.45-1.34-.45-2.21,0-.97.17-1.77.5-2.39.33-.62.77-1.12,1.31-1.49.54-.38,1.16-.67,1.86-.88.7-.21,1.41-.38,2.14-.51.77-.15,1.51-.27,2.21-.35.7-.08,1.31-.19,1.84-.33.53-.14.95-.35,1.26-.63.31-.28.46-.68.46-1.21,0-.62-.12-1.12-.35-1.49-.23-.38-.53-.66-.9-.86s-.78-.33-1.23-.4c-.45-.07-.9-.1-1.34-.1-1.2,0-2.19.23-2.99.68-.8.45-1.23,1.31-1.29,2.57h-2.82c.04-1.06.27-1.96.66-2.69s.93-1.32,1.59-1.78c.66-.45,1.43-.78,2.29-.98s1.77-.3,2.72-.3c.77,0,1.54.06,2.31.17.76.11,1.46.34,2.08.68.62.34,1.12.82,1.49,1.44.38.62.56,1.43.56,2.42v8.83c0,.66.04,1.15.12,1.46.08.31.34.46.78.46.27,0,.55-.05.86-.17v2.19Zm-4.58-8.8c-.27.2-.6.35-1,.46-.4.11-.82.2-1.26.28-.44.08-.91.14-1.41.2-.5.06-.98.13-1.44.22-.46.09-.91.2-1.33.33-.42.13-.79.32-1.1.55-.31.23-.56.53-.75.88-.19.35-.28.8-.28,1.33,0,.46.09.86.28,1.18.19.32.43.58.73.78s.65.34,1.05.43c.4.09.82.13,1.26.13.93,0,1.73-.13,2.39-.38.66-.25,1.21-.58,1.63-.96.42-.39.73-.81.93-1.26.2-.45.3-.88.3-1.28v-2.89Z" style="fill:#233167;"/></g><circle cx="812.29" cy="287.23" r="3.1" style="fill:#e97d7a;"/><g><path d="m94.48,271.97h16.55v2.62h-13.36v7.69h12.46v2.62h-12.46v8.43h13.46v2.62h-16.65v-23.97Z" style="fill:#233167;"/><path d="m130.03,295.94h-2.85v-2.35h-.07c-.47.96-1.21,1.66-2.22,2.1-1.01.44-2.12.65-3.32.65-1.34,0-2.51-.25-3.51-.74-1-.49-1.82-1.16-2.48-2s-1.16-1.81-1.49-2.9c-.34-1.1-.5-2.26-.5-3.49s.16-2.39.49-3.47c.32-1.09.82-2.04,1.48-2.87.66-.83,1.49-1.48,2.48-1.96,1-.48,2.15-.72,3.47-.72.45,0,.93.05,1.44.13.51.09,1.03.24,1.54.45.51.21,1,.49,1.46.84.46.35.84.78,1.16,1.29h.07v-8.93h2.85v23.97Zm-13.11-6.16c.21.77.54,1.46.97,2.06s1,1.09,1.68,1.44c.68.36,1.48.54,2.4.54s1.78-.19,2.45-.57c.67-.38,1.22-.88,1.65-1.49.42-.62.73-1.31.92-2.1.19-.78.29-1.58.29-2.38,0-.85-.1-1.67-.3-2.47-.2-.79-.52-1.49-.96-2.1s-1-1.09-1.7-1.46c-.69-.37-1.53-.55-2.52-.55s-1.81.19-2.47.57c-.66.38-1.19.88-1.59,1.51-.4.63-.69,1.34-.87,2.15-.18.81-.27,1.63-.27,2.48,0,.81.11,1.59.32,2.37Z" style="fill:#233167;"/><path d="m148.8,295.94h-2.69v-2.75h-.07c-.6,1.07-1.38,1.87-2.33,2.38-.95.51-2.05.77-3.31.77-1.14,0-2.09-.16-2.85-.47s-1.38-.75-1.85-1.31c-.47-.56-.8-1.23-.99-2-.19-.77-.29-1.63-.29-2.57v-11.41h2.85v11.75c0,1.07.31,1.93.94,2.55.63.63,1.49.94,2.58.94.87,0,1.63-.13,2.27-.4s1.17-.65,1.59-1.14c.42-.49.74-1.07.96-1.73.21-.66.32-1.38.32-2.17v-9.8h2.85v17.36Z" style="fill:#233167;"/><path d="m164.88,284.16c-.22-1.1-.7-1.95-1.43-2.55s-1.68-.91-2.87-.91c-1.03,0-1.89.19-2.58.57-.69.38-1.25.88-1.66,1.51-.42.63-.71,1.35-.89,2.17-.18.82-.27,1.66-.27,2.53,0,.81.09,1.59.29,2.35.19.76.49,1.44.89,2.03.4.59.92,1.07,1.56,1.43.64.36,1.42.54,2.33.54,1.39,0,2.48-.37,3.29-1.12.81-.75,1.3-1.78,1.48-3.11h2.92c-.31,2.13-1.12,3.78-2.42,4.97-1.3,1.19-3.04,1.78-5.24,1.78-1.32,0-2.49-.22-3.51-.65-1.02-.44-1.87-1.05-2.55-1.83-.68-.78-1.2-1.72-1.54-2.8-.35-1.09-.52-2.28-.52-3.58s.17-2.51.5-3.64c.34-1.13.85-2.11,1.53-2.95.69-.84,1.54-1.5,2.56-1.98,1.02-.48,2.23-.72,3.62-.72.99,0,1.92.12,2.78.35.87.23,1.64.6,2.31,1.09.67.49,1.22,1.11,1.63,1.86.42.75.68,1.64.79,2.67h-3.02Z" style="fill:#233167;"/><path d="m186.5,295.88c-.52.31-1.2.47-2.05.47-.74,0-1.33-.21-1.76-.64-.44-.42-.65-1.11-.65-2.05-.78.94-1.7,1.62-2.74,2.05-1.04.43-2.17.64-3.37.64-.78,0-1.53-.09-2.23-.27s-1.32-.46-1.83-.86c-.51-.39-.92-.9-1.22-1.51-.3-.62-.45-1.36-.45-2.23,0-.98.17-1.79.5-2.42.34-.63.78-1.13,1.33-1.51.55-.38,1.17-.68,1.88-.89.71-.21,1.43-.39,2.17-.52.78-.16,1.53-.27,2.23-.35.71-.08,1.33-.19,1.86-.34.54-.15.96-.36,1.28-.64.31-.28.47-.69.47-1.23,0-.63-.12-1.13-.35-1.51-.23-.38-.54-.67-.91-.87s-.78-.34-1.24-.4-.91-.1-1.36-.1c-1.21,0-2.22.23-3.02.69-.81.46-1.24,1.33-1.31,2.6h-2.85c.04-1.07.27-1.98.67-2.72.4-.74.94-1.34,1.61-1.8.67-.46,1.44-.79,2.32-.99s1.79-.3,2.75-.3c.78,0,1.56.06,2.33.17.77.11,1.47.34,2.1.69.63.35,1.13.83,1.51,1.46.38.63.57,1.44.57,2.45v8.93c0,.67.04,1.16.12,1.48.08.31.34.47.79.47.27,0,.56-.06.87-.17v2.22Zm-4.63-8.9c-.27.2-.6.36-1.01.47-.4.11-.83.21-1.28.29-.45.08-.92.15-1.43.2-.5.06-.99.13-1.46.22-.47.09-.92.2-1.34.34-.43.13-.79.32-1.11.55s-.57.53-.75.89c-.19.36-.29.81-.29,1.34,0,.47.09.87.29,1.19.19.32.44.59.74.79s.65.35,1.06.44c.4.09.83.13,1.28.13.94,0,1.75-.13,2.42-.39.67-.26,1.22-.58,1.65-.97.42-.39.74-.82.94-1.28.2-.46.3-.89.3-1.29v-2.92Z" style="fill:#233167;"/><path d="m193.11,278.59h3.46v2.52h-3.46v10.78c0,.34.03.6.08.81.06.2.16.36.32.47.16.11.38.18.66.22.28.03.64.05,1.09.05h1.31v2.52h-2.18c-.74,0-1.37-.05-1.9-.15-.53-.1-.95-.29-1.28-.55s-.57-.65-.72-1.14c-.16-.49-.23-1.14-.23-1.95v-11.05h-2.96v-2.52h2.96v-5.2h2.85v5.2Z" style="fill:#233167;"/><path d="m202.75,275.46h-2.85v-3.49h2.85v3.49Zm-2.85,3.12h2.85v17.36h-2.85v-17.36Z" style="fill:#233167;"/><path d="m206.78,283.71c.36-1.11.89-2.07,1.61-2.89.72-.82,1.59-1.46,2.63-1.93,1.04-.47,2.25-.71,3.64-.71s2.57.24,3.63.71c1.05.47,1.94,1.11,2.65,1.93.72.82,1.25,1.78,1.61,2.89.36,1.11.54,2.3.54,3.58s-.18,2.46-.54,3.56c-.36,1.1-.9,2.05-1.61,2.87-.72.82-1.6,1.46-2.65,1.93-1.05.47-2.26.71-3.63.71s-2.6-.23-3.64-.71c-1.04-.47-1.92-1.11-2.63-1.93-.72-.82-1.25-1.77-1.61-2.87-.36-1.1-.54-2.28-.54-3.56s.18-2.47.54-3.58Zm2.9,6.38c.28.82.67,1.5,1.16,2.05.49.55,1.07.97,1.73,1.26.66.29,1.36.44,2.1.44s1.44-.15,2.1-.44c.66-.29,1.24-.71,1.73-1.26.49-.55.88-1.23,1.16-2.05.28-.82.42-1.75.42-2.8s-.14-1.99-.42-2.8c-.28-.82-.67-1.5-1.16-2.06-.49-.56-1.07-.98-1.73-1.28-.66-.29-1.36-.44-2.1-.44s-1.44.15-2.1.44c-.66.29-1.24.72-1.73,1.28-.49.56-.88,1.25-1.16,2.06-.28.82-.42,1.75-.42,2.8s.14,1.99.42,2.8Z" style="fill:#233167;"/><path d="m226.45,278.59h2.69v2.75h.07c.6-1.07,1.38-1.87,2.33-2.38.95-.51,2.05-.77,3.31-.77,1.14,0,2.09.16,2.85.47.76.31,1.38.75,1.85,1.31.47.56.8,1.23.99,2,.19.77.29,1.63.29,2.57v11.41h-2.85v-11.75c0-1.07-.31-1.92-.94-2.55-.63-.63-1.49-.94-2.58-.94-.87,0-1.63.13-2.27.4-.64.27-1.17.65-1.59,1.14-.43.49-.75,1.07-.96,1.73-.21.66-.32,1.38-.32,2.17v9.8h-2.85v-17.36Z" style="fill:#233167;"/><path d="m260.49,295.88c-.52.31-1.2.47-2.05.47-.74,0-1.33-.21-1.76-.64-.44-.42-.65-1.11-.65-2.05-.78.94-1.7,1.62-2.74,2.05-1.04.43-2.17.64-3.37.64-.78,0-1.53-.09-2.23-.27s-1.32-.46-1.83-.86c-.51-.39-.92-.9-1.22-1.51-.3-.62-.45-1.36-.45-2.23,0-.98.17-1.79.5-2.42.34-.63.78-1.13,1.33-1.51.55-.38,1.17-.68,1.88-.89.71-.21,1.43-.39,2.17-.52.78-.16,1.53-.27,2.23-.35.71-.08,1.33-.19,1.86-.34.54-.15.96-.36,1.28-.64.31-.28.47-.69.47-1.23,0-.63-.12-1.13-.35-1.51-.23-.38-.54-.67-.91-.87s-.78-.34-1.24-.4-.91-.1-1.36-.1c-1.21,0-2.22.23-3.02.69-.81.46-1.24,1.33-1.31,2.6h-2.85c.04-1.07.27-1.98.67-2.72.4-.74.94-1.34,1.61-1.8.67-.46,1.44-.79,2.32-.99s1.79-.3,2.75-.3c.78,0,1.56.06,2.33.17.77.11,1.47.34,2.1.69.63.35,1.13.83,1.51,1.46.38.63.57,1.44.57,2.45v8.93c0,.67.04,1.16.12,1.48.08.31.34.47.79.47.27,0,.56-.06.87-.17v2.22Zm-4.63-8.9c-.27.2-.6.36-1.01.47-.4.11-.83.21-1.28.29-.45.08-.92.15-1.43.2-.5.06-.99.13-1.46.22-.47.09-.92.2-1.34.34-.43.13-.79.32-1.11.55s-.57.53-.75.89c-.19.36-.29.81-.29,1.34,0,.47.09.87.29,1.19.19.32.44.59.74.79s.65.35,1.06.44c.4.09.83.13,1.28.13.94,0,1.75-.13,2.42-.39.67-.26,1.22-.58,1.65-.97.42-.39.74-.82.94-1.28.2-.46.3-.89.3-1.29v-2.92Z" style="fill:#233167;"/><path d="m263.31,271.97h2.85v23.97h-2.85v-23.97Z" style="fill:#233167;"/><path d="m280.03,278.59h2.85v2.35h.07c.47-.96,1.21-1.66,2.22-2.1,1.01-.44,2.12-.65,3.32-.65,1.34,0,2.51.25,3.51.74,1,.49,1.82,1.16,2.48,2,.66.84,1.16,1.81,1.49,2.9.34,1.1.5,2.26.5,3.49s-.16,2.4-.49,3.49c-.33,1.1-.82,2.05-1.48,2.87-.66.82-1.49,1.47-2.48,1.95-1,.48-2.15.72-3.47.72-.45,0-.93-.05-1.44-.13-.52-.09-1.03-.24-1.54-.45s-1-.49-1.46-.84c-.46-.35-.84-.78-1.16-1.29h-.07v8.96h-2.85v-24Zm13.11,6.16c-.21-.77-.54-1.46-.97-2.06-.44-.6-1-1.09-1.68-1.44-.68-.36-1.48-.54-2.4-.54-.96,0-1.78.19-2.45.57-.67.38-1.22.88-1.64,1.49-.43.62-.73,1.31-.92,2.1-.19.78-.29,1.58-.29,2.38,0,.85.1,1.67.3,2.47.2.79.52,1.49.96,2.1.44.6,1,1.09,1.7,1.46s1.53.55,2.52.55,1.78-.19,2.45-.57c.67-.38,1.21-.88,1.61-1.51.4-.63.69-1.34.87-2.15.18-.81.27-1.63.27-2.48,0-.81-.11-1.59-.32-2.37Z" style="fill:#233167;"/><path d="m300,271.97h2.85v23.97h-2.85v-23.97Z" style="fill:#233167;"/><path d="m322.66,295.88c-.52.31-1.2.47-2.05.47-.74,0-1.33-.21-1.76-.64-.44-.42-.65-1.11-.65-2.05-.78.94-1.7,1.62-2.74,2.05-1.04.43-2.17.64-3.37.64-.78,0-1.53-.09-2.23-.27s-1.32-.46-1.83-.86c-.51-.39-.92-.9-1.22-1.51-.3-.62-.45-1.36-.45-2.23,0-.98.17-1.79.5-2.42.34-.63.78-1.13,1.33-1.51.55-.38,1.17-.68,1.88-.89.71-.21,1.43-.39,2.17-.52.78-.16,1.53-.27,2.23-.35.71-.08,1.33-.19,1.86-.34.54-.15.96-.36,1.28-.64.31-.28.47-.69.47-1.23,0-.63-.12-1.13-.35-1.51-.23-.38-.54-.67-.91-.87s-.78-.34-1.24-.4-.91-.1-1.36-.1c-1.21,0-2.22.23-3.02.69-.81.46-1.24,1.33-1.31,2.6h-2.85c.04-1.07.27-1.98.67-2.72.4-.74.94-1.34,1.61-1.8.67-.46,1.44-.79,2.32-.99s1.79-.3,2.75-.3c.78,0,1.56.06,2.33.17.77.11,1.47.34,2.1.69.63.35,1.13.83,1.51,1.46.38.63.57,1.44.57,2.45v8.93c0,.67.04,1.16.12,1.48.08.31.34.47.79.47.27,0,.56-.06.87-.17v2.22Zm-4.63-8.9c-.27.2-.6.36-1.01.47-.4.11-.83.21-1.28.29-.45.08-.92.15-1.43.2-.5.06-.99.13-1.46.22-.47.09-.92.2-1.34.34-.43.13-.79.32-1.11.55s-.57.53-.75.89c-.19.36-.29.81-.29,1.34,0,.47.09.87.29,1.19.19.32.44.59.74.79s.65.35,1.06.44c.4.09.83.13,1.28.13.94,0,1.75-.13,2.42-.39.67-.26,1.22-.58,1.65-.97.42-.39.74-.82.94-1.28.2-.46.3-.89.3-1.29v-2.92Z" style="fill:#233167;"/><path d="m329.28,278.59h3.46v2.52h-3.46v10.78c0,.34.03.6.08.81.06.2.16.36.32.47.16.11.38.18.66.22.28.03.64.05,1.09.05h1.31v2.52h-2.18c-.74,0-1.37-.05-1.9-.15-.53-.1-.95-.29-1.28-.55s-.57-.65-.72-1.14c-.16-.49-.23-1.14-.23-1.95v-11.05h-2.96v-2.52h2.96v-5.2h2.85v5.2Z" style="fill:#233167;"/><path d="m337.06,281.1h-2.92v-2.52h2.92v-2.58c0-1.41.41-2.48,1.23-3.21.82-.73,2.01-1.09,3.58-1.09.27,0,.58.02.92.07.35.05.65.11.92.2v2.48c-.25-.09-.51-.15-.81-.18-.29-.03-.56-.05-.81-.05-.69,0-1.23.13-1.61.4-.38.27-.57.78-.57,1.54v2.42h3.36v2.52h-3.36v14.84h-2.85v-14.84Z" style="fill:#233167;"/><path d="m345.42,283.71c.36-1.11.89-2.07,1.61-2.89.72-.82,1.59-1.46,2.63-1.93,1.04-.47,2.25-.71,3.64-.71s2.57.24,3.63.71c1.05.47,1.94,1.11,2.65,1.93.72.82,1.25,1.78,1.61,2.89.36,1.11.54,2.3.54,3.58s-.18,2.46-.54,3.56c-.36,1.1-.9,2.05-1.61,2.87-.72.82-1.6,1.46-2.65,1.93-1.05.47-2.26.71-3.63.71s-2.6-.23-3.64-.71c-1.04-.47-1.92-1.11-2.63-1.93-.72-.82-1.25-1.77-1.61-2.87-.36-1.1-.54-2.28-.54-3.56s.18-2.47.54-3.58Zm2.9,6.38c.28.82.67,1.5,1.16,2.05.49.55,1.07.97,1.73,1.26.66.29,1.36.44,2.1.44s1.44-.15,2.1-.44c.66-.29,1.24-.71,1.73-1.26.49-.55.88-1.23,1.16-2.05.28-.82.42-1.75.42-2.8s-.14-1.99-.42-2.8c-.28-.82-.67-1.5-1.16-2.06-.49-.56-1.07-.98-1.73-1.28-.66-.29-1.36-.44-2.1-.44s-1.44.15-2.1.44c-.66.29-1.24.72-1.73,1.28-.49.56-.88,1.25-1.16,2.06-.28.82-.42,1.75-.42,2.8s.14,1.99.42,2.8Z" style="fill:#233167;"/><path d="m364.99,278.59h2.69v3.66h.07c.69-1.41,1.54-2.45,2.55-3.12,1.01-.67,2.28-.98,3.83-.94v3.02c-1.14,0-2.12.16-2.92.47-.81.31-1.46.77-1.95,1.38s-.85,1.34-1.07,2.22c-.22.87-.34,1.86-.34,2.95v7.72h-2.85v-17.36Z" style="fill:#233167;"/><path d="m376.27,278.59h2.69v2.55h.07c1.3-1.97,3.17-2.95,5.61-2.95,1.07,0,2.05.22,2.92.67.87.45,1.49,1.21,1.85,2.28.58-.94,1.35-1.67,2.32-2.18.96-.51,2-.77,3.12-.77.87,0,1.66.1,2.37.29.71.19,1.31.49,1.81.89.5.4.89.92,1.17,1.56.28.64.42,1.4.42,2.3v12.72h-2.85v-11.38c0-.54-.04-1.04-.13-1.51-.09-.47-.26-.88-.5-1.23-.25-.35-.59-.62-1.02-.82s-1-.3-1.7-.3c-1.39,0-2.49.4-3.31,1.21-.82.81-1.23,1.88-1.23,3.22v10.81h-2.85v-11.38c0-.56-.05-1.07-.15-1.54s-.27-.88-.52-1.23c-.25-.35-.58-.62-1.01-.81-.43-.19-.95-.29-1.58-.29-.85,0-1.57.17-2.15.5s-1.06.74-1.43,1.21-.64.96-.81,1.46c-.17.5-.25.92-.25,1.26v10.81h-2.85v-17.36Z" style="fill:#233167;"/><path d="m415.42,281.1h-2.92v-2.52h2.92v-2.58c0-1.41.41-2.48,1.23-3.21.82-.73,2.01-1.09,3.58-1.09.27,0,.58.02.92.07.35.05.65.11.92.2v2.48c-.25-.09-.51-.15-.81-.18-.29-.03-.56-.05-.81-.05-.69,0-1.23.13-1.61.4-.38.27-.57.78-.57,1.54v2.42h3.36v2.52h-3.36v14.84h-2.85v-14.84Z" style="fill:#233167;"/><path d="m423.78,283.71c.36-1.11.89-2.07,1.61-2.89.72-.82,1.59-1.46,2.63-1.93,1.04-.47,2.25-.71,3.64-.71s2.57.24,3.63.71c1.05.47,1.94,1.11,2.65,1.93.72.82,1.25,1.78,1.61,2.89.36,1.11.54,2.3.54,3.58s-.18,2.46-.54,3.56c-.36,1.1-.9,2.05-1.61,2.87-.72.82-1.6,1.46-2.65,1.93-1.05.47-2.26.71-3.63.71s-2.6-.23-3.64-.71c-1.04-.47-1.92-1.11-2.63-1.93-.72-.82-1.25-1.77-1.61-2.87-.36-1.1-.54-2.28-.54-3.56s.18-2.47.54-3.58Zm2.9,6.38c.28.82.67,1.5,1.16,2.05.49.55,1.07.97,1.73,1.26.66.29,1.36.44,2.1.44s1.44-.15,2.1-.44c.66-.29,1.24-.71,1.73-1.26.49-.55.88-1.23,1.16-2.05.28-.82.42-1.75.42-2.8s-.14-1.99-.42-2.8c-.28-.82-.67-1.5-1.16-2.06-.49-.56-1.07-.98-1.73-1.28-.66-.29-1.36-.44-2.1-.44s-1.44.15-2.1.44c-.66.29-1.24.72-1.73,1.28-.49.56-.88,1.25-1.16,2.06-.28.82-.42,1.75-.42,2.8s.14,1.99.42,2.8Z" style="fill:#233167;"/><path d="m443.35,278.59h2.69v3.66h.07c.69-1.41,1.54-2.45,2.55-3.12,1.01-.67,2.28-.98,3.83-.94v3.02c-1.14,0-2.12.16-2.92.47-.81.31-1.46.77-1.95,1.38s-.85,1.34-1.07,2.22c-.22.87-.34,1.86-.34,2.95v7.72h-2.85v-17.36Z" style="fill:#233167;"/><path d="m464.06,271.97h2.85v8.96h.07c.47-.96,1.21-1.66,2.22-2.1,1.01-.44,2.12-.65,3.32-.65,1.34,0,2.51.25,3.51.74,1,.49,1.82,1.16,2.48,2,.66.84,1.16,1.81,1.49,2.9.34,1.1.5,2.26.5,3.49s-.16,2.4-.49,3.49c-.33,1.1-.82,2.05-1.48,2.87-.66.82-1.49,1.47-2.48,1.95-1,.48-2.15.72-3.47.72-.45,0-.93-.05-1.44-.13-.52-.09-1.03-.24-1.54-.45s-1-.49-1.46-.84c-.46-.35-.84-.78-1.16-1.29h-.07v2.32h-2.85v-23.97Zm13.11,12.77c-.21-.77-.54-1.46-.97-2.06-.44-.6-1-1.09-1.68-1.44-.68-.36-1.48-.54-2.4-.54-.96,0-1.78.19-2.45.57-.67.38-1.22.88-1.64,1.49-.43.62-.73,1.31-.92,2.1-.19.78-.29,1.58-.29,2.38,0,.85.1,1.67.3,2.47.2.79.52,1.49.96,2.1.44.6,1,1.09,1.7,1.46s1.53.55,2.52.55,1.78-.19,2.45-.57c.67-.38,1.21-.88,1.61-1.51.4-.63.69-1.34.87-2.15.18-.81.27-1.63.27-2.48,0-.81-.11-1.59-.32-2.37Z" style="fill:#233167;"/><path d="m498.24,295.94h-2.69v-2.75h-.07c-.6,1.07-1.38,1.87-2.33,2.38-.95.51-2.05.77-3.31.77-1.14,0-2.09-.16-2.85-.47s-1.38-.75-1.85-1.31c-.47-.56-.8-1.23-.99-2-.19-.77-.29-1.63-.29-2.57v-11.41h2.85v11.75c0,1.07.31,1.93.94,2.55.63.63,1.49.94,2.58.94.87,0,1.63-.13,2.27-.4s1.17-.65,1.59-1.14c.42-.49.74-1.07.96-1.73.21-.66.32-1.38.32-2.17v-9.8h2.85v17.36Z" style="fill:#233167;"/><path d="m505.56,275.46h-2.85v-3.49h2.85v3.49Zm-2.85,3.12h2.85v17.36h-2.85v-17.36Z" style="fill:#233167;"/><path d="m510.16,271.97h2.85v23.97h-2.85v-23.97Z" style="fill:#233167;"/><path d="m532.95,295.94h-2.85v-2.35h-.07c-.47.96-1.21,1.66-2.22,2.1-1.01.44-2.12.65-3.32.65-1.34,0-2.51-.25-3.51-.74-1-.49-1.82-1.16-2.48-2s-1.16-1.81-1.49-2.9c-.34-1.1-.5-2.26-.5-3.49s.16-2.39.49-3.47c.32-1.09.82-2.04,1.48-2.87.66-.83,1.49-1.48,2.48-1.96,1-.48,2.15-.72,3.47-.72.45,0,.93.05,1.44.13.51.09,1.03.24,1.54.45.51.21,1,.49,1.46.84.46.35.84.78,1.16,1.29h.07v-8.93h2.85v23.97Zm-13.11-6.16c.21.77.54,1.46.97,2.06s1,1.09,1.68,1.44c.68.36,1.48.54,2.4.54s1.78-.19,2.45-.57c.67-.38,1.22-.88,1.65-1.49.42-.62.73-1.31.92-2.1.19-.78.29-1.58.29-2.38,0-.85-.1-1.67-.3-2.47-.2-.79-.52-1.49-.96-2.1s-1-1.09-1.7-1.46c-.69-.37-1.53-.55-2.52-.55s-1.81.19-2.47.57c-.66.38-1.19.88-1.59,1.51-.4.63-.69,1.34-.87,2.15-.18.81-.27,1.63-.27,2.48,0,.81.11,1.59.32,2.37Z" style="fill:#233167;"/><path d="m540.37,275.46h-2.85v-3.49h2.85v3.49Zm-2.85,3.12h2.85v17.36h-2.85v-17.36Z" style="fill:#233167;"/><path d="m544.8,278.59h2.69v2.75h.07c.6-1.07,1.38-1.87,2.33-2.38.95-.51,2.05-.77,3.31-.77,1.14,0,2.09.16,2.85.47.76.31,1.38.75,1.85,1.31.47.56.8,1.23.99,2,.19.77.29,1.63.29,2.57v11.41h-2.85v-11.75c0-1.07-.31-1.92-.94-2.55-.63-.63-1.49-.94-2.58-.94-.87,0-1.63.13-2.27.4-.64.27-1.17.65-1.59,1.14-.43.49-.75,1.07-.96,1.73-.21.66-.32,1.38-.32,2.17v9.8h-2.85v-17.36Z" style="fill:#233167;"/><path d="m578.44,294.47c0,2.84-.65,4.97-1.96,6.4-1.31,1.42-3.34,2.13-6.09,2.13-.81,0-1.63-.09-2.47-.27-.84-.18-1.6-.47-2.28-.87-.68-.4-1.25-.93-1.7-1.58-.45-.65-.69-1.44-.74-2.38h2.85c.02.51.18.95.49,1.31.3.36.67.65,1.11.87.44.22.91.39,1.43.49.51.1,1.01.15,1.48.15.94,0,1.73-.16,2.38-.49.65-.32,1.19-.77,1.61-1.34.42-.57.73-1.26.92-2.06.19-.81.29-1.7.29-2.69v-1.14h-.07c-.25.54-.56,1-.94,1.39-.38.39-.81.72-1.29.97-.48.26-1,.45-1.54.59-.55.13-1.09.2-1.63.2-1.3,0-2.43-.24-3.39-.71-.96-.47-1.77-1.11-2.42-1.91-.65-.81-1.14-1.74-1.46-2.8-.32-1.06-.49-2.19-.49-3.37,0-1.03.13-2.08.4-3.16s.72-2.06,1.34-2.95c.63-.89,1.46-1.63,2.48-2.2,1.03-.57,2.29-.86,3.79-.86,1.1,0,2.1.24,3.02.72.92.48,1.63,1.2,2.15,2.17h.03v-2.48h2.69v15.88Zm-5.59-1.43c.66-.39,1.19-.91,1.59-1.54.4-.64.7-1.36.89-2.17s.29-1.61.29-2.42c0-.76-.09-1.51-.27-2.25-.18-.74-.46-1.4-.86-2-.39-.59-.9-1.07-1.53-1.43-.63-.36-1.39-.54-2.28-.54s-1.7.17-2.35.52c-.65.35-1.18.81-1.59,1.39-.41.58-.72,1.25-.91,2.01-.19.76-.29,1.56-.29,2.38,0,.78.08,1.57.23,2.35.16.78.42,1.49.81,2.13s.88,1.15,1.51,1.54c.63.39,1.41.59,2.35.59s1.74-.2,2.4-.59Z" style="fill:#233167;"/><path d="m592.67,271.97h3.19v23.97h-3.19v-23.97Z" style="fill:#233167;"/><path d="m601.37,271.97h3.19v23.97h-3.19v-23.97Z" style="fill:#233167;"/><path d="m609.05,283.71c.36-1.11.89-2.07,1.61-2.89.72-.82,1.59-1.46,2.63-1.93,1.04-.47,2.25-.71,3.64-.71s2.57.24,3.63.71c1.05.47,1.94,1.11,2.65,1.93.72.82,1.25,1.78,1.61,2.89.36,1.11.54,2.3.54,3.58s-.18,2.46-.54,3.56c-.36,1.1-.9,2.05-1.61,2.87-.72.82-1.6,1.46-2.65,1.93-1.05.47-2.26.71-3.63.71s-2.6-.23-3.64-.71c-1.04-.47-1.92-1.11-2.63-1.93-.72-.82-1.25-1.77-1.61-2.87-.36-1.1-.54-2.28-.54-3.56s.18-2.47.54-3.58Zm2.9,6.38c.28.82.67,1.5,1.16,2.05.49.55,1.07.97,1.73,1.26.66.29,1.36.44,2.1.44s1.44-.15,2.1-.44c.66-.29,1.24-.71,1.73-1.26.49-.55.88-1.23,1.16-2.05.28-.82.42-1.75.42-2.8s-.14-1.99-.42-2.8c-.28-.82-.67-1.5-1.16-2.06-.49-.56-1.07-.98-1.73-1.28-.66-.29-1.36-.44-2.1-.44s-1.44.15-2.1.44c-.66.29-1.24.72-1.73,1.28-.49.56-.88,1.25-1.16,2.06-.28.82-.42,1.75-.42,2.8s.14,1.99.42,2.8Z" style="fill:#233167;"/><path d="m634.63,274.59h-7.99v-2.62h19.17v2.62h-7.99v21.35h-3.19v-21.35Z" style="fill:#233167;"/><path d="m672.3,294.47c0,2.84-.65,4.97-1.96,6.4-1.31,1.42-3.34,2.13-6.09,2.13-.81,0-1.63-.09-2.47-.27-.84-.18-1.6-.47-2.28-.87-.68-.4-1.25-.93-1.7-1.58-.45-.65-.69-1.44-.74-2.38h2.85c.02.51.18.95.49,1.31.3.36.67.65,1.11.87.44.22.91.39,1.43.49.51.1,1.01.15,1.48.15.94,0,1.73-.16,2.38-.49.65-.32,1.19-.77,1.61-1.34.42-.57.73-1.26.92-2.06.19-.81.29-1.7.29-2.69v-1.14h-.07c-.25.54-.56,1-.94,1.39-.38.39-.81.72-1.29.97-.48.26-1,.45-1.54.59-.55.13-1.09.2-1.63.2-1.3,0-2.43-.24-3.39-.71-.96-.47-1.77-1.11-2.42-1.91-.65-.81-1.14-1.74-1.46-2.8-.32-1.06-.49-2.19-.49-3.37,0-1.03.13-2.08.4-3.16s.72-2.06,1.34-2.95c.63-.89,1.46-1.63,2.48-2.2,1.03-.57,2.29-.86,3.79-.86,1.1,0,2.1.24,3.02.72.92.48,1.63,1.2,2.15,2.17h.03v-2.48h2.69v15.88Zm-5.59-1.43c.66-.39,1.19-.91,1.59-1.54.4-.64.7-1.36.89-2.17s.29-1.61.29-2.42c0-.76-.09-1.51-.27-2.25-.18-.74-.46-1.4-.86-2-.39-.59-.9-1.07-1.53-1.43-.63-.36-1.39-.54-2.28-.54s-1.7.17-2.35.52c-.65.35-1.18.81-1.59,1.39-.41.58-.72,1.25-.91,2.01-.19.76-.29,1.56-.29,2.38,0,.78.08,1.57.23,2.35.16.78.42,1.49.81,2.13s.88,1.15,1.51,1.54c.63.39,1.41.59,2.35.59s1.74-.2,2.4-.59Z" style="fill:#233167;"/><path d="m691.97,295.88c-.52.31-1.2.47-2.05.47-.74,0-1.33-.21-1.76-.64-.44-.42-.65-1.11-.65-2.05-.78.94-1.7,1.62-2.74,2.05-1.04.43-2.17.64-3.37.64-.78,0-1.53-.09-2.23-.27s-1.32-.46-1.83-.86c-.51-.39-.92-.9-1.22-1.51-.3-.62-.45-1.36-.45-2.23,0-.98.17-1.79.5-2.42.34-.63.78-1.13,1.33-1.51.55-.38,1.17-.68,1.88-.89.71-.21,1.43-.39,2.17-.52.78-.16,1.53-.27,2.23-.35.71-.08,1.33-.19,1.86-.34.54-.15.96-.36,1.28-.64.31-.28.47-.69.47-1.23,0-.63-.12-1.13-.35-1.51-.23-.38-.54-.67-.91-.87s-.78-.34-1.24-.4-.91-.1-1.36-.1c-1.21,0-2.22.23-3.02.69-.81.46-1.24,1.33-1.31,2.6h-2.85c.04-1.07.27-1.98.67-2.72.4-.74.94-1.34,1.61-1.8.67-.46,1.44-.79,2.32-.99s1.79-.3,2.75-.3c.78,0,1.56.06,2.33.17.77.11,1.47.34,2.1.69.63.35,1.13.83,1.51,1.46.38.63.57,1.44.57,2.45v8.93c0,.67.04,1.16.12,1.48.08.31.34.47.79.47.27,0,.56-.06.87-.17v2.22Zm-4.63-8.9c-.27.2-.6.36-1.01.47-.4.11-.83.21-1.28.29-.45.08-.92.15-1.43.2-.5.06-.99.13-1.46.22-.47.09-.92.2-1.34.34-.43.13-.79.32-1.11.55s-.57.53-.75.89c-.19.36-.29.81-.29,1.34,0,.47.09.87.29,1.19.19.32.44.59.74.79s.65.35,1.06.44c.4.09.83.13,1.28.13.94,0,1.75-.13,2.42-.39.67-.26,1.22-.58,1.65-.97.42-.39.74-.82.94-1.28.2-.46.3-.89.3-1.29v-2.92Z" style="fill:#233167;"/><path d="m698.59,278.59h3.46v2.52h-3.46v10.78c0,.34.03.6.08.81.06.2.16.36.32.47.16.11.38.18.66.22.28.03.64.05,1.09.05h1.31v2.52h-2.18c-.74,0-1.37-.05-1.9-.15-.53-.1-.95-.29-1.28-.55s-.57-.65-.72-1.14c-.16-.49-.23-1.14-.23-1.95v-11.05h-2.96v-2.52h2.96v-5.2h2.85v5.2Z" style="fill:#233167;"/><path d="m720.01,290.44c-.38,1.93-1.22,3.39-2.52,4.4s-2.93,1.51-4.9,1.51c-1.39,0-2.59-.23-3.61-.69-1.02-.46-1.88-1.09-2.57-1.9-.69-.81-1.21-1.77-1.56-2.89-.35-1.12-.54-2.34-.59-3.66,0-1.3.2-2.5.6-3.61.4-1.11.97-2.06,1.7-2.87s1.59-1.43,2.58-1.88c1-.45,2.09-.67,3.27-.67,1.54,0,2.83.32,3.84.96s1.83,1.45,2.45,2.43c.62.99,1.04,2.06,1.28,3.22.24,1.16.33,2.27.29,3.32h-12.99c-.02.76.07,1.48.27,2.17.2.68.53,1.29.97,1.81.45.53,1.02.95,1.71,1.26.69.31,1.51.47,2.45.47,1.19,0,2.17-.28,2.95-.84.78-.56,1.3-1.41,1.54-2.55h2.82Zm-2.75-4.83c-.05-.67-.2-1.31-.45-1.91-.26-.6-.6-1.12-1.04-1.56-.44-.44-.96-.78-1.56-1.04-.6-.26-1.25-.39-1.95-.39-.74,0-1.4.13-2,.39-.59.26-1.1.61-1.53,1.06-.43.45-.76.97-1.01,1.56-.25.59-.39,1.23-.44,1.9h9.97Z" style="fill:#233167;"/><path d="m740.42,295.94h-3.02l-3.52-13.8h-.07l-3.56,13.8h-3.02l-5.57-17.36h3.16l3.89,14.2h.07l3.53-14.2h3.12l3.63,14.2h.07l3.83-14.2h3.02l-5.54,17.36Z" style="fill:#233167;"/><path d="m764.05,295.88c-.52.31-1.2.47-2.05.47-.74,0-1.33-.21-1.76-.64-.44-.42-.65-1.11-.65-2.05-.78.94-1.7,1.62-2.74,2.05-1.04.43-2.17.64-3.37.64-.78,0-1.53-.09-2.23-.27s-1.32-.46-1.83-.86c-.51-.39-.92-.9-1.22-1.51-.3-.62-.45-1.36-.45-2.23,0-.98.17-1.79.5-2.42.34-.63.78-1.13,1.33-1.51.55-.38,1.17-.68,1.88-.89.71-.21,1.43-.39,2.17-.52.78-.16,1.53-.27,2.23-.35.71-.08,1.33-.19,1.86-.34.54-.15.96-.36,1.28-.64.31-.28.47-.69.47-1.23,0-.63-.12-1.13-.35-1.51-.23-.38-.54-.67-.91-.87s-.78-.34-1.24-.4-.91-.1-1.36-.1c-1.21,0-2.22.23-3.02.69-.81.46-1.24,1.33-1.31,2.6h-2.85c.04-1.07.27-1.98.67-2.72.4-.74.94-1.34,1.61-1.8.67-.46,1.44-.79,2.32-.99s1.79-.3,2.75-.3c.78,0,1.56.06,2.33.17.77.11,1.47.34,2.1.69.63.35,1.13.83,1.51,1.46.38.63.57,1.44.57,2.45v8.93c0,.67.04,1.16.12,1.48.08.31.34.47.79.47.27,0,.56-.06.87-.17v2.22Zm-4.63-8.9c-.27.2-.6.36-1.01.47-.4.11-.83.21-1.28.29-.45.08-.92.15-1.43.2-.5.06-.99.13-1.46.22-.47.09-.92.2-1.34.34-.43.13-.79.32-1.11.55s-.57.53-.75.89c-.19.36-.29.81-.29,1.34,0,.47.09.87.29,1.19.19.32.44.59.74.79s.65.35,1.06.44c.4.09.83.13,1.28.13.94,0,1.75-.13,2.42-.39.67-.26,1.22-.58,1.65-.97.42-.39.74-.82.94-1.28.2-.46.3-.89.3-1.29v-2.92Z" style="fill:#233167;"/><path d="m773.55,298.26c-.34.85-.67,1.57-1,2.15-.33.58-.68,1.06-1.06,1.43-.38.37-.82.64-1.32.81-.5.17-1.06.25-1.69.25-.34,0-.68-.02-1.01-.07-.34-.05-.66-.12-.98-.23v-2.62c.27.09.54.18.82.27.28.09.57.13.86.13.58,0,1.05-.13,1.41-.4.36-.27.67-.66.94-1.18l1.17-2.95-6.88-17.26h3.22l5.07,14.2h.07l4.87-14.2h3.02l-7.52,19.67Z" style="fill:#233167;"/><path d="m785.23,290.47c.02.65.17,1.19.44,1.61.27.43.62.77,1.06,1.02.44.26.93.44,1.48.55.55.11,1.11.17,1.7.17.45,0,.92-.03,1.41-.1s.95-.19,1.36-.37c.41-.18.76-.44,1.02-.78.27-.34.4-.78.4-1.31s-.16-1-.49-1.34c-.33-.34-.75-.62-1.28-.85-.53-.22-1.13-.4-1.81-.55-.68-.14-1.38-.29-2.1-.45-.72-.16-1.41-.35-2.08-.57-.67-.23-1.28-.52-1.81-.88s-.97-.82-1.29-1.39c-.32-.56-.49-1.26-.49-2.1,0-.88.2-1.63.59-2.26.39-.63.9-1.14,1.51-1.54.62-.39,1.31-.69,2.08-.88.77-.19,1.54-.29,2.3-.29.96,0,1.86.08,2.7.25.84.17,1.58.46,2.22.87.64.41,1.15.97,1.53,1.68.38.71.6,1.58.67,2.64h-2.85c-.05-.56-.2-1.02-.45-1.39-.26-.37-.57-.67-.94-.89-.37-.22-.78-.39-1.24-.49-.46-.1-.92-.15-1.39-.15-.42,0-.86.03-1.29.1s-.83.18-1.19.35c-.36.17-.65.4-.87.69-.22.29-.34.65-.34,1.07,0,.52.17.93.52,1.24.35.31.79.58,1.33.79.54.21,1.14.39,1.81.54.67.15,1.34.3,2.01.45.72.16,1.42.35,2.1.57.68.22,1.29.52,1.81.89.53.37.95.83,1.28,1.39.32.56.49,1.25.49,2.08,0,1.03-.22,1.9-.65,2.6s-1.01,1.27-1.71,1.7c-.71.43-1.5.73-2.38.91-.88.18-1.76.27-2.64.27-.98,0-1.91-.11-2.77-.32s-1.63-.55-2.3-1.01c-.67-.46-1.21-1.06-1.61-1.81-.4-.75-.63-1.66-.67-2.74h2.85Z" style="fill:#233167;"/></g></svg>